<svg width="18" height="14" viewBox="0 0 18 14" fill="none" xmlns="http://www.w3.org/2000/svg">
<path fill-rule="evenodd" clip-rule="evenodd" d="M5 0C6.30622 0 7.41746 0.834808 7.82929 2L18 2V4L7.82929 4C7.41746 5.16519 6.30622 6 5 6C3.69378 6 2.58254 5.16519 2.17071 4H0V2H2.17071C2.58254 0.834808 3.69378 0 5 0ZM5 4C5.55228 4 6 3.55228 6 3C6 2.44772 5.55228 2 5 2C4.44772 2 4 2.44772 4 3C4 3.55228 4.44772 4 5 4Z" fill="#8A8A8E"/>
<path fill-rule="evenodd" clip-rule="evenodd" d="M0 10V12H10.1707C10.5825 13.1652 11.6938 14 13 14C14.3062 14 15.4175 13.1652 15.8293 12H18V10H15.8293C15.4175 8.83481 14.3062 8 13 8C11.6938 8 10.5825 8.83481 10.1707 10H0ZM12 11C12 11.5523 12.4477 12 13 12C13.5523 12 14 11.5523 14 11C14 10.4477 13.5523 10 13 10C12.4477 10 12 10.4477 12 11Z" fill="#8A8A8E"/>
</svg>
